solid OpenSCAD_Model
  facet normal -1 0 0
    outer loop
      vertex -1.5 -2 -4
      vertex -1.5 -4 -4
      vertex -1.5 -2 0
    endloop
  endfacet
  facet normal -1 0 0
    outer loop
      vertex -1.5 2 0
      vertex -1.5 4 -4
      vertex -1.5 2 -4
    endloop
  endfacet
  facet normal -1 0 0
    outer loop
      vertex -1.5 4 -4
      vertex -1.5 2 0
      vertex -1.5 4 4
    endloop
  endfacet
  facet normal -1 0 0
    outer loop
      vertex -1.5 -2 0
      vertex -1.5 4 4
      vertex -1.5 2 0
    endloop
  endfacet
  facet normal -1 0 0
    outer loop
      vertex -1.5 -2 0
      vertex -1.5 -4 4
      vertex -1.5 4 4
    endloop
  endfacet
  facet normal -1 0 0
    outer loop
      vertex -1.5 -4 4
      vertex -1.5 -2 0
      vertex -1.5 -4 -4
    endloop
  endfacet
  facet normal -0 0 1
    outer loop
      vertex -1.5 4 4
      vertex 1.5 -4 4
      vertex 1.5 4 4
    endloop
  endfacet
  facet normal 0 0 1
    outer loop
      vertex 1.5 -4 4
      vertex -1.5 4 4
      vertex -1.5 -4 4
    endloop
  endfacet
  facet normal 1 0 0
    outer loop
      vertex 1.5 4 4
      vertex 1.5 2 0
      vertex 1.5 4 -4
    endloop
  endfacet
  facet normal 1 0 0
    outer loop
      vertex 1.5 4 4
      vertex 1.5 -2 0
      vertex 1.5 2 0
    endloop
  endfacet
  facet normal 1 -0 0
    outer loop
      vertex 1.5 -4 4
      vertex 1.5 -2 0
      vertex 1.5 4 4
    endloop
  endfacet
  facet normal 1 0 0
    outer loop
      vertex 1.5 -4 -4
      vertex 1.5 -2 0
      vertex 1.5 -4 4
    endloop
  endfacet
  facet normal 1 0 0
    outer loop
      vertex 1.5 -2 0
      vertex 1.5 -4 -4
      vertex 1.5 -2 -4
    endloop
  endfacet
  facet normal 1 0 0
    outer loop
      vertex 1.5 4 -4
      vertex 1.5 2 0
      vertex 1.5 2 -4
    endloop
  endfacet
  facet normal 0 1 -0
    outer loop
      vertex 1.5 4 -4
      vertex -1.5 4 4
      vertex 1.5 4 4
    endloop
  endfacet
  facet normal 0 1 0
    outer loop
      vertex -1.5 4 4
      vertex 1.5 4 -4
      vertex -1.5 4 -4
    endloop
  endfacet
  facet normal 0 0 -1
    outer loop
      vertex -1.5 -4 -4
      vertex 1.5 -2 -4
      vertex 1.5 -4 -4
    endloop
  endfacet
  facet normal -0 0 -1
    outer loop
      vertex 1.5 -2 -4
      vertex -1.5 -4 -4
      vertex -1.5 -2 -4
    endloop
  endfacet
  facet normal 0 0 -1
    outer loop
      vertex -1.5 2 -4
      vertex 1.5 4 -4
      vertex 1.5 2 -4
    endloop
  endfacet
  facet normal -0 0 -1
    outer loop
      vertex 1.5 4 -4
      vertex -1.5 2 -4
      vertex -1.5 4 -4
    endloop
  endfacet
  facet normal 0 -1 0
    outer loop
      vertex -1.5 -4 -4
      vertex 1.5 -4 4
      vertex -1.5 -4 4
    endloop
  endfacet
  facet normal 0 -1 -0
    outer loop
      vertex 1.5 -4 4
      vertex -1.5 -4 -4
      vertex 1.5 -4 -4
    endloop
  endfacet
  facet normal 0 0 -1
    outer loop
      vertex -1.5 -2 0
      vertex 1.5 2 0
      vertex 1.5 -2 0
    endloop
  endfacet
  facet normal -0 0 -1
    outer loop
      vertex 1.5 2 0
      vertex -1.5 -2 0
      vertex -1.5 2 0
    endloop
  endfacet
  facet normal 0 1 -0
    outer loop
      vertex 1.5 -2 -4
      vertex -1.5 -2 0
      vertex 1.5 -2 0
    endloop
  endfacet
  facet normal 0 1 0
    outer loop
      vertex -1.5 -2 0
      vertex 1.5 -2 -4
      vertex -1.5 -2 -4
    endloop
  endfacet
  facet normal 0 -1 0
    outer loop
      vertex -1.5 2 -4
      vertex 1.5 2 0
      vertex -1.5 2 0
    endloop
  endfacet
  facet normal 0 -1 -0
    outer loop
      vertex 1.5 2 0
      vertex -1.5 2 -4
      vertex 1.5 2 -4
    endloop
  endfacet
endsolid OpenSCAD_Model
